<svg width="227" height="48" viewBox="0 0 227 48" fill="none" xmlns="http://www.w3.org/2000/svg">
<path d="M16 8C24.8366 8 32 15.1634 32 24C32 32.8366 24.8366 40 16 40C7.16344 40 0 32.8366 0 24C0 15.1634 7.16344 8 16 8ZM24.334 22.833H24.333L24.3311 22.834C24.3292 22.8344 24.3258 22.8351 24.3223 22.8359C24.3144 22.8378 24.3015 22.8411 24.2861 22.8447C24.2544 22.8523 24.2058 22.8636 24.1445 22.8779C24.0216 22.9068 23.8409 22.9487 23.6123 23.001C23.1536 23.1058 22.4983 23.2532 21.7168 23.4199C20.1533 23.7534 18.079 24.1673 16.0381 24.4902C12.7546 24.9543 10.7773 25.1564 9.58789 25.2725C8.99394 25.3304 8.59437 25.3673 8.32812 25.4043C8.19564 25.4227 8.09428 25.4413 8.01855 25.4629C7.94325 25.4844 7.89074 25.5098 7.85547 25.541C7.84003 25.5548 7.82408 25.5801 7.80762 25.6123C7.79098 25.6449 7.77306 25.6871 7.75488 25.7363C7.71838 25.8352 7.67892 25.9657 7.63965 26.1162C7.56091 26.4181 7.4811 26.8036 7.42285 27.1846C7.37213 27.5165 7.34167 27.8469 7.31543 28.1133C7.30232 28.2464 7.29032 28.3643 7.27734 28.458C7.26439 28.5515 7.25055 28.6209 7.23438 28.6592C7.2335 28.6612 7.22994 28.6648 7.22168 28.667C7.21311 28.6691 7.19973 28.6699 7.18359 28.6689C7.15084 28.667 7.10434 28.6578 7.04785 28.6445C6.93414 28.6178 6.77821 28.5715 6.60156 28.5186C6.24835 28.4128 5.80893 28.2807 5.44824 28.2246C5.05797 28.1641 4.74376 28.1789 4.52832 28.209C4.42135 28.224 4.33767 28.2427 4.28125 28.2578C4.25346 28.2653 4.2313 28.2726 4.2168 28.2773C4.21001 28.2796 4.20391 28.2819 4.2002 28.2832C4.19896 28.2836 4.19721 28.284 4.19629 28.2842H4.19531L4.19434 28.2852L4.19824 28.3037L4.20117 28.3047C4.20357 28.3047 4.20771 28.3044 4.21191 28.3047C4.22123 28.3054 4.23547 28.307 4.25293 28.3086C4.28892 28.3118 4.34218 28.3168 4.4082 28.3252C4.54153 28.3422 4.73128 28.3725 4.95312 28.4229C5.39778 28.5238 5.97634 28.7077 6.50879 29.041C6.85769 29.2596 7.08712 29.4843 7.22852 29.6533C7.29905 29.7377 7.34875 29.8089 7.37988 29.8584C7.3952 29.8828 7.40689 29.9029 7.41406 29.916C7.41521 29.9182 7.41604 29.921 7.41699 29.9229C7.40924 29.9234 7.3979 29.9239 7.38477 29.9248C7.35412 29.927 7.30881 29.9304 7.25391 29.9346C7.14322 29.943 6.98857 29.955 6.81738 29.9697C6.47457 29.9992 6.05935 30.0391 5.77441 30.0811C5.48971 30.123 5.174 30.1888 4.93066 30.2432C4.80953 30.2703 4.70521 30.2947 4.63184 30.3125C4.59556 30.3213 4.56583 30.3281 4.5459 30.333C4.53658 30.3353 4.5286 30.3375 4.52344 30.3389C4.52139 30.3394 4.51894 30.3404 4.51758 30.3408H4.51562L4.51855 30.3604H4.54395C4.5612 30.3599 4.58771 30.359 4.62012 30.3584C4.68584 30.3573 4.78161 30.3565 4.89941 30.3574C5.13612 30.3593 5.46545 30.3681 5.83301 30.3975C6.56924 30.4564 7.46193 30.5966 8.08789 30.9189C9.426 31.6079 12.2226 33.0067 15.1406 33.0068C15.8933 33.0067 16.9619 32.7885 18.1387 32.4619C19.3158 32.1352 20.6043 31.6992 21.7979 31.2637C22.9913 30.8282 24.0913 30.392 24.8926 30.0654C25.293 29.9022 25.6199 29.7661 25.8457 29.6709C25.9583 29.6234 26.0469 29.586 26.1064 29.5605C26.1357 29.548 26.1587 29.5378 26.1738 29.5312C26.1812 29.5281 26.1876 29.5251 26.1914 29.5234C26.1931 29.5229 26.1954 29.5228 26.1963 29.5225L26.1973 29.5215L26.1934 29.502C25.5513 29.5085 25.1397 29.5765 24.334 29.8203C24.7286 29.4502 25.111 29.1306 25.625 28.8584C26.1525 28.5792 26.8208 28.3486 27.7832 28.1641L27.7822 28.1445C26.8742 28.0213 26.2758 28.0666 25.0879 28.3203C25.248 27.7504 25.236 27.0785 25.0977 26.2061C24.958 25.3252 24.6904 24.2376 24.3457 22.8408L24.3359 22.8428L25.8613 22.4668L24.334 22.833ZM21.1162 24.8193C21.1698 24.8197 21.2152 24.8235 21.249 24.832C21.2822 24.8405 21.308 24.8545 21.3193 24.875C21.3442 24.9199 21.3598 24.9869 21.3662 25.0693C21.3726 25.1524 21.3707 25.2532 21.3594 25.3652C21.3367 25.5896 21.2779 25.8634 21.1836 26.1465C20.9951 26.7124 20.6616 27.32 20.1787 27.6533C19.6002 28.0521 19.1676 28.0513 18.4473 28.1348C17.8727 28.2013 17.2361 28.2095 16.7061 28.1621C16.4415 28.1384 16.2017 28.1002 16.0098 28.0488C15.8186 27.9976 15.6716 27.9315 15.5928 27.8516C15.5786 27.8368 15.5773 27.8123 15.583 27.7842C15.589 27.755 15.6035 27.7176 15.625 27.6748C15.6683 27.5889 15.742 27.476 15.8438 27.3477C16.0478 27.0904 16.3649 26.767 16.7725 26.459C17.0333 26.2062 17.438 25.964 17.8994 25.7471C18.3617 25.5298 18.8825 25.3369 19.375 25.1846C19.8672 25.0324 20.3324 24.9198 20.6836 24.8623C20.8589 24.8336 21.0077 24.8187 21.1162 24.8193ZM10.2295 27.2861C10.9512 27.3394 11.6037 27.5222 12.1582 27.666C12.4663 27.7459 12.7415 27.8166 12.9365 27.873C13.0337 27.9012 13.1128 27.9255 13.165 27.9463C13.1907 27.9565 13.2115 27.9669 13.2246 27.9756C13.2308 27.9798 13.2368 27.9845 13.2402 27.9893C13.2437 27.9943 13.2461 28.0018 13.2432 28.0088C13.2414 28.0126 13.2376 28.0154 13.2354 28.0166C13.233 28.0178 13.2295 28.0187 13.2266 28.0195C13.2202 28.0212 13.2106 28.0232 13.2002 28.0244C13.1787 28.0269 13.1475 28.0281 13.1094 28.0293C13.0324 28.0317 12.9222 28.0323 12.79 28.0312C12.5248 28.0291 12.1653 28.0212 11.7861 28.0146C11.0509 28.002 10.2391 27.9943 9.64941 27.9746C9.29238 27.952 8.9649 27.9122 8.72852 27.873C8.61075 27.8535 8.51414 27.8336 8.44824 27.8164C8.41588 27.808 8.38954 27.8002 8.37207 27.793C8.36379 27.7895 8.35658 27.7849 8.35156 27.7812C8.34919 27.7795 8.3465 27.777 8.34473 27.7744C8.34295 27.7717 8.34119 27.7679 8.3418 27.7637L8.3623 27.7314C8.37285 27.7213 8.38776 27.7104 8.40527 27.6992C8.44112 27.6764 8.49148 27.6499 8.55273 27.623C8.67604 27.5691 8.84632 27.5092 9.03613 27.4551C9.41593 27.3468 9.8811 27.2605 10.2295 27.2861ZM21.1982 14.0391C21.1011 13.996 21.0094 13.9866 20.9277 14.0176C20.8473 14.0482 20.7576 14.1138 20.6631 14.2051C20.5684 14.2965 20.4677 14.4148 20.3633 14.5488C20.1544 14.817 19.9306 15.1529 19.7148 15.4834C19.499 15.814 19.2908 16.14 19.1123 16.3877C19.0231 16.5115 18.9404 16.6158 18.8691 16.6914C18.8337 16.729 18.8012 16.7601 18.7715 16.7822C18.7417 16.8044 18.7146 16.8176 18.6924 16.8223C18.5614 16.8491 16.8659 17.1882 15.6973 17.4209C15.0774 17.5443 14.3273 17.728 13.7109 17.8672C13.4028 17.9368 13.1276 17.9955 12.9189 18.0303C12.8149 18.0476 12.7269 18.0586 12.6602 18.0625C12.627 18.0644 12.5983 18.0644 12.5762 18.0625C12.5542 18.0605 12.5383 18.0569 12.5293 18.0518C12.4637 18.0133 12.3888 17.9429 12.3066 17.8496C12.2245 17.7562 12.1344 17.6392 12.04 17.5068C11.851 17.2417 11.6414 16.9139 11.4248 16.5869C11.2148 16.27 10.9968 15.953 10.7998 15.6904C10.6032 15.4285 10.4253 15.2189 10.2939 15.1172C10.2238 15.0632 10.1391 15.0656 10.0469 15.1143C9.95484 15.1629 9.85237 15.258 9.74414 15.3906C9.5274 15.6565 9.28192 16.0782 9.03418 16.5977C8.53842 17.6372 8.0321 19.0734 7.72266 20.4541C7.50658 21.4183 7.41284 21.9882 7.36035 22.334C7.33417 22.5065 7.31783 22.6231 7.30176 22.7051C7.28571 22.7869 7.27009 22.8333 7.24512 22.8662C7.23072 22.885 7.20038 22.9032 7.15527 22.9199C7.11049 22.9365 7.05126 22.9516 6.98047 22.9648C6.83849 22.9913 6.64841 23.0113 6.42578 23.0273C5.97981 23.0594 5.40213 23.0755 4.8125 23.0967C4.22305 23.1179 3.62025 23.1442 3.125 23.1963C2.87764 23.2223 2.65615 23.2552 2.47656 23.2969C2.2977 23.3384 2.15818 23.3896 2.0752 23.4531C2.03343 23.4853 2.00834 23.522 2.00195 23.5615C1.99572 23.601 2.00859 23.6428 2.03516 23.6846C2.08846 23.7678 2.20263 23.8575 2.3623 23.9492C2.6832 24.1333 3.1956 24.3305 3.79883 24.5059C5.006 24.8566 6.58272 25.1239 7.73242 25.0391C10.0289 24.8693 13.5549 24.739 20.7139 23.1914C21.7619 22.9648 22.5262 22.7476 23.3145 22.541C24.1028 22.3344 24.917 22.1387 26.0645 21.9541C27.009 21.8022 27.7704 21.7464 28.2949 21.7295C28.5568 21.7211 28.7609 21.7224 28.8984 21.7256C28.9667 21.7272 29.0196 21.7297 29.0547 21.7314C29.0715 21.7323 29.085 21.7329 29.0938 21.7334C29.0979 21.7337 29.1023 21.7342 29.1045 21.7344H29.1074L29.1113 21.7148L29.1094 21.7139C29.1079 21.7134 29.1051 21.7128 29.1025 21.7119C29.0968 21.7098 29.088 21.7059 29.0771 21.7021C29.0545 21.6943 29.0202 21.6828 28.9766 21.6689C28.8883 21.6409 28.7579 21.6019 28.5928 21.5596C28.2616 21.4747 27.7858 21.3746 27.2119 21.3145C26.1729 21.2057 24.7515 21.2353 24.4756 21.2354C24.4505 21.2352 24.4249 21.2149 24.3994 21.1709C24.3743 21.1272 24.3499 21.0618 24.3262 20.9785C24.2786 20.8111 24.2321 20.5706 24.1748 20.2812C24.0601 19.7022 23.9023 18.9252 23.6064 18.1367C23.211 17.0831 22.7011 15.9937 22.2119 15.1982C21.9675 14.8009 21.7271 14.4752 21.5088 14.2646C21.3999 14.1598 21.2952 14.0823 21.1982 14.0391ZM29.9961 22.2832C29.8898 21.9247 27.2065 22.2299 24.7549 22.7725L25.1338 24.4199C28.159 23.8109 30.0997 22.6426 29.9961 22.2832Z" fill="#2DD4BF"/>
<path d="M41.96 34V13.84H44.452V22.73H55.064V13.84H57.556V34H55.064V25.096H44.452V34H41.96ZM64.3814 34.42C63.2521 34.42 62.3048 34.2147 61.5394 33.804C60.7834 33.384 60.2094 32.8333 59.8174 32.152C59.4348 31.4707 59.2434 30.724 59.2434 29.912C59.2434 29.1187 59.3928 28.4327 59.6914 27.854C59.9994 27.266 60.4288 26.7807 60.9794 26.398C61.5301 26.006 62.1881 25.698 62.9534 25.474C63.6721 25.278 64.4748 25.11 65.3614 24.97C66.2574 24.8207 67.1628 24.6853 68.0774 24.564C68.9921 24.4427 69.8461 24.326 70.6394 24.214L69.7434 24.732C69.7714 23.388 69.5008 22.394 68.9314 21.75C68.3714 21.106 67.4008 20.784 66.0194 20.784C65.1048 20.784 64.3021 20.994 63.6114 21.414C62.9301 21.8247 62.4494 22.4967 62.1694 23.43L59.8034 22.716C60.1674 21.3907 60.8721 20.35 61.9174 19.594C62.9628 18.838 64.3394 18.46 66.0474 18.46C67.4194 18.46 68.5954 18.7073 69.5754 19.202C70.5648 19.6873 71.2741 20.4247 71.7034 21.414C71.9181 21.8807 72.0534 22.3893 72.1094 22.94C72.1654 23.4813 72.1934 24.0507 72.1934 24.648V34H69.9814V30.374L70.4994 30.71C69.9301 31.9327 69.1321 32.8567 68.1054 33.482C67.0881 34.1073 65.8468 34.42 64.3814 34.42ZM64.7594 32.334C65.6554 32.334 66.4301 32.1753 67.0834 31.858C67.7461 31.5313 68.2781 31.1067 68.6794 30.584C69.0808 30.052 69.3421 29.4733 69.4634 28.848C69.6034 28.3813 69.6781 27.8633 69.6874 27.294C69.7061 26.7153 69.7154 26.272 69.7154 25.964L70.5834 26.342C69.7714 26.454 68.9734 26.5613 68.1894 26.664C67.4054 26.7667 66.6634 26.8787 65.9634 27C65.2634 27.112 64.6334 27.2473 64.0734 27.406C63.6628 27.5367 63.2754 27.7047 62.9114 27.91C62.5568 28.1153 62.2674 28.3813 62.0434 28.708C61.8288 29.0253 61.7214 29.422 61.7214 29.898C61.7214 30.3087 61.8241 30.7007 62.0294 31.074C62.2441 31.4473 62.5708 31.7507 63.0094 31.984C63.4574 32.2173 64.0408 32.334 64.7594 32.334ZM80.8034 34.42C79.2728 34.42 77.9708 34.0793 76.8974 33.398C75.8334 32.7073 75.0214 31.76 74.4614 30.556C73.9014 29.352 73.6121 27.98 73.5934 26.44C73.6121 24.8627 73.9061 23.4767 74.4754 22.282C75.0541 21.078 75.8801 20.14 76.9534 19.468C78.0268 18.796 79.3194 18.46 80.8314 18.46C82.4274 18.46 83.7994 18.852 84.9474 19.636C86.1048 20.42 86.8794 21.4933 87.2714 22.856L84.8074 23.598C84.4901 22.7207 83.9721 22.0393 83.2534 21.554C82.5441 21.0687 81.7274 20.826 80.8034 20.826C79.7674 20.826 78.9134 21.0687 78.2414 21.554C77.5694 22.03 77.0701 22.6927 76.7434 23.542C76.4168 24.382 76.2488 25.348 76.2394 26.44C76.2581 28.12 76.6454 29.478 77.4014 30.514C78.1668 31.5407 79.3008 32.054 80.8034 32.054C81.7928 32.054 82.6141 31.83 83.2674 31.382C83.9208 30.9247 84.4154 30.2667 84.7514 29.408L87.2714 30.066C86.7488 31.4753 85.9321 32.5533 84.8214 33.3C83.7108 34.0467 82.3714 34.42 80.8034 34.42ZM88.7147 34L88.7287 13.84H91.2487V26.16L97.5908 18.88H100.825L94.1467 26.44L101.609 34H98.1227L91.2487 26.72V34H88.7147ZM107.881 34.42C106.397 34.42 105.099 34.0933 103.989 33.44C102.887 32.7773 102.029 31.858 101.413 30.682C100.797 29.4967 100.489 28.1153 100.489 26.538C100.489 24.886 100.792 23.458 101.399 22.254C102.005 21.0407 102.85 20.1073 103.933 19.454C105.025 18.7913 106.303 18.46 107.769 18.46C109.29 18.46 110.583 18.81 111.647 19.51C112.72 20.21 113.523 21.2087 114.055 22.506C114.596 23.8033 114.829 25.348 114.755 27.14H112.235V26.244C112.207 24.3867 111.829 23.0007 111.101 22.086C110.373 21.162 109.29 20.7 107.853 20.7C106.313 20.7 105.141 21.1947 104.339 22.184C103.536 23.1733 103.135 24.592 103.135 26.44C103.135 28.2227 103.536 29.604 104.339 30.584C105.141 31.564 106.285 32.054 107.769 32.054C108.767 32.054 109.635 31.8253 110.373 31.368C111.11 30.9107 111.689 30.2527 112.109 29.394L114.503 30.22C113.915 31.5547 113.028 32.5907 111.843 33.328C110.667 34.056 109.346 34.42 107.881 34.42ZM102.295 27.14V25.138H113.467V27.14H102.295ZM116.472 34V18.88H118.698V22.534L118.334 22.058C118.511 21.5913 118.74 21.162 119.02 20.77C119.309 20.378 119.631 20.056 119.986 19.804C120.378 19.4867 120.821 19.244 121.316 19.076C121.81 18.908 122.314 18.81 122.828 18.782C123.341 18.7447 123.822 18.7773 124.27 18.88V21.218C123.747 21.078 123.173 21.0407 122.548 21.106C121.922 21.1713 121.344 21.4 120.812 21.792C120.326 22.1373 119.948 22.5573 119.678 23.052C119.416 23.5467 119.234 24.0833 119.132 24.662C119.029 25.2313 118.978 25.8147 118.978 26.412V34H116.472ZM130.682 34.406C128.881 34.406 127.401 34.014 126.244 33.23C125.096 32.4367 124.391 31.3307 124.13 29.912L126.678 29.506C126.883 30.3273 127.355 30.9807 128.092 31.466C128.829 31.942 129.744 32.18 130.836 32.18C131.872 32.18 132.684 31.9653 133.272 31.536C133.86 31.1067 134.154 30.5233 134.154 29.786C134.154 29.3567 134.056 29.0113 133.86 28.75C133.664 28.4793 133.258 28.2273 132.642 27.994C132.035 27.7607 131.116 27.4807 129.884 27.154C128.549 26.7993 127.499 26.4307 126.734 26.048C125.969 25.6653 125.423 25.222 125.096 24.718C124.769 24.214 124.606 23.6027 124.606 22.884C124.606 21.9973 124.849 21.2227 125.334 20.56C125.819 19.888 126.496 19.37 127.364 19.006C128.241 18.642 129.259 18.46 130.416 18.46C131.564 18.46 132.591 18.642 133.496 19.006C134.401 19.37 135.129 19.888 135.68 20.56C136.24 21.2227 136.571 21.9973 136.674 22.884L134.126 23.346C134.005 22.534 133.613 21.8947 132.95 21.428C132.297 20.9613 131.452 20.714 130.416 20.686C129.436 20.6487 128.638 20.8213 128.022 21.204C127.415 21.5867 127.112 22.1047 127.112 22.758C127.112 23.122 127.224 23.4347 127.448 23.696C127.681 23.9573 128.106 24.2047 128.722 24.438C129.347 24.6713 130.253 24.9373 131.438 25.236C132.773 25.572 133.823 25.9407 134.588 26.342C135.363 26.734 135.913 27.2007 136.24 27.742C136.567 28.274 136.73 28.932 136.73 29.716C136.73 31.172 136.193 32.32 135.12 33.16C134.047 33.9907 132.567 34.406 130.682 34.406ZM138.866 34V31.256H141.61V34H138.866Z" fill="white"/>
<path d="M146.96 34V13.84H148.458L156.718 31.676L164.894 13.84H166.448V33.972H164.866V17.55L157.362 34H156.046L148.528 17.55V34H146.96ZM173.334 34.42C172.168 34.42 171.197 34.2147 170.422 33.804C169.657 33.3933 169.083 32.852 168.7 32.18C168.318 31.4987 168.126 30.7613 168.126 29.968C168.126 29.1093 168.304 28.3907 168.658 27.812C169.022 27.2333 169.503 26.7667 170.1 26.412C170.707 26.0573 171.374 25.7913 172.102 25.614C172.933 25.4273 173.829 25.2687 174.79 25.138C175.752 24.998 176.666 24.8767 177.534 24.774C178.412 24.6713 179.126 24.5827 179.676 24.508L179.088 24.858C179.126 23.2247 178.818 22.0113 178.164 21.218C177.52 20.4153 176.382 20.014 174.748 20.014C173.6 20.014 172.653 20.2753 171.906 20.798C171.169 21.3113 170.651 22.1093 170.352 23.192L168.7 22.73C169.046 21.358 169.741 20.3033 170.786 19.566C171.832 18.8287 173.171 18.46 174.804 18.46C176.195 18.46 177.362 18.7307 178.304 19.272C179.256 19.8133 179.919 20.574 180.292 21.554C180.451 21.9553 180.558 22.4267 180.614 22.968C180.67 23.5 180.698 24.0367 180.698 24.578V34H179.228V30.024L179.774 30.164C179.317 31.5267 178.519 32.5767 177.38 33.314C176.242 34.0513 174.893 34.42 173.334 34.42ZM173.418 32.936C174.445 32.936 175.346 32.754 176.12 32.39C176.895 32.0167 177.52 31.4987 177.996 30.836C178.482 30.164 178.79 29.3753 178.92 28.47C179.014 27.966 179.065 27.42 179.074 26.832C179.084 26.244 179.088 25.81 179.088 25.53L179.788 25.978C179.182 26.0527 178.454 26.132 177.604 26.216C176.764 26.3 175.906 26.4027 175.028 26.524C174.151 26.6453 173.358 26.7993 172.648 26.986C172.21 27.1073 171.766 27.2847 171.318 27.518C170.88 27.742 170.511 28.0547 170.212 28.456C169.923 28.8573 169.778 29.366 169.778 29.982C169.778 30.4393 169.89 30.8967 170.114 31.354C170.348 31.8113 170.73 32.1893 171.262 32.488C171.794 32.7867 172.513 32.936 173.418 32.936ZM182.933 34V18.88H184.403V22.506L184.039 22.03C184.207 21.6007 184.417 21.204 184.669 20.84C184.931 20.4667 185.197 20.1633 185.467 19.93C185.869 19.5567 186.34 19.2767 186.881 19.09C187.423 18.894 187.969 18.782 188.519 18.754C189.07 18.7167 189.569 18.7587 190.017 18.88V20.406C189.42 20.266 188.785 20.238 188.113 20.322C187.441 20.406 186.811 20.6953 186.223 21.19C185.71 21.638 185.337 22.1607 185.103 22.758C184.87 23.346 184.721 23.9667 184.655 24.62C184.59 25.264 184.557 25.894 184.557 26.51V34H182.933ZM191.268 34V13.84H192.892V26.16L200.046 18.88H202.3L194.81 26.44L203.364 34H200.858L192.892 26.72V34H191.268ZM209.332 34.42C207.886 34.42 206.635 34.098 205.58 33.454C204.526 32.8007 203.709 31.8813 203.13 30.696C202.552 29.5013 202.262 28.092 202.262 26.468C202.262 24.816 202.547 23.3927 203.116 22.198C203.695 20.994 204.507 20.07 205.552 19.426C206.607 18.782 207.858 18.46 209.304 18.46C210.77 18.46 212.02 18.796 213.056 19.468C214.102 20.1307 214.895 21.092 215.436 22.352C215.987 23.612 216.248 25.1287 216.22 26.902H214.54V26.342C214.494 24.27 214.027 22.6927 213.14 21.61C212.254 20.5273 210.984 19.986 209.332 19.986C207.624 19.986 206.304 20.5507 205.37 21.68C204.446 22.8 203.984 24.3867 203.984 26.44C203.984 28.4747 204.446 30.052 205.37 31.172C206.304 32.292 207.615 32.852 209.304 32.852C210.471 32.852 211.488 32.5813 212.356 32.04C213.234 31.4893 213.929 30.7053 214.442 29.688L215.898 30.332C215.292 31.6387 214.414 32.6467 213.266 33.356C212.118 34.0653 210.807 34.42 209.332 34.42ZM203.368 26.902V25.446H215.31V26.902H203.368ZM225.939 34C225.136 34.1773 224.343 34.2427 223.559 34.196C222.775 34.1587 222.075 33.986 221.459 33.678C220.852 33.3607 220.395 32.8753 220.087 32.222C219.835 31.69 219.695 31.1533 219.667 30.612C219.639 30.0707 219.625 29.45 219.625 28.75V14.68H221.249V28.722C221.249 29.3567 221.254 29.884 221.263 30.304C221.282 30.7147 221.38 31.0927 221.557 31.438C221.893 32.082 222.425 32.474 223.153 32.614C223.881 32.7447 224.81 32.7213 225.939 32.544V34ZM216.237 20.35V18.88H225.939V20.35H216.237Z" fill="white"/>
</svg>
